<?xml version="1.0" encoding="utf-8"?>
<!-- Generator: Adobe Illustrator 22.1.0, SVG Export Plug-In . SVG Version: 6.00 Build 0)  -->
<svg version="1.1" id="Ebene_1" xmlns="http://www.w3.org/2000/svg" xmlns:xlink="http://www.w3.org/1999/xlink" x="0px" y="0px"
	 viewBox="0 0 400 400" style="enable-background:new 0 0 400 400;" xml:space="preserve">
<style type="text/css">
	.st0{fill:#6081C4;}
	.st1{fill:#FFFFFF;}
</style>
<g>
	
		<ellipse id="XMLID_21_" transform="matrix(0.9999 -1.439467e-02 1.439467e-02 0.9999 -2.8477 2.9035)" class="st0" cx="200.3" cy="199.3" rx="197.7" ry="197.7"/>
	<path id="XMLID_19_" class="st1" d="M217.7,153v-18.7c0-9.1,6.1-11.3,10.4-11.3c4.3,0,26.3,0,26.3,0V82.9l-36.2-0.2
		c-40.2,0-49.3,29.9-49.3,49.1V153h-23.2v28.3v18.5H169c0,53.1,0,117.1,0,117.1h46.8c0,0,0-64.7,0-117.1h34.8l1.7-18.4l2.6-28.4
		H217.7z"/>
</g>
</svg>
