<?xml version="1.0" encoding="utf-8"?>
<!-- Generator: Adobe Illustrator 22.1.0, SVG Export Plug-In . SVG Version: 6.00 Build 0)  -->
<svg version="1.1" id="Ebene_1" xmlns="http://www.w3.org/2000/svg" xmlns:xlink="http://www.w3.org/1999/xlink" x="0px" y="0px"
	 viewBox="0 0 400 400" style="enable-background:new 0 0 400 400;" xml:space="preserve">
<style type="text/css">
	.st0{fill:#864C2D;}
	.st1{fill:#FFFFFF;}
</style>
<g>
	<path id="XMLID_115_" class="st0" d="M400,200c0,110.5-89.5,200-200,200C89.5,400,0,310.5,0,200C0,89.5,89.5,0,200,0
		C310.5,0,400,89.5,400,200z"/>
	<path class="st1" d="M272.7,81.5H127.3c-25.2,0-45.8,20.5-45.8,45.8v48.4v17.8v79.2c0,25.2,20.5,45.8,45.8,45.8h145.3
		c25.2,0,45.8-20.5,45.8-45.8v-79.2v-17.8v-48.4C318.5,102.1,297.9,81.5,272.7,81.5z M285.8,108.9l5.2,0v5.2V149l-40,0.1l-0.1-40.1
		L285.8,108.9z M166.2,175.7c7.6-10.5,19.9-17.4,33.8-17.4c13.9,0,26.2,6.9,33.8,17.4c0.9,1.3,1.7,2.6,2.5,4
		c3.4,6,5.4,12.9,5.4,20.3c0,23-18.7,41.7-41.7,41.7c-23,0-41.7-18.7-41.7-41.7c0-7.4,2-14.3,5.4-20.3
		C164.5,178.3,165.3,177,166.2,175.7z M295.4,272.7c0,12.5-10.2,22.7-22.7,22.7H127.3c-12.5,0-22.7-10.2-22.7-22.7V188v-12.3H140
		c-0.9,2.2-1.6,4.4-2.3,6.7c-1.6,5.6-2.5,11.5-2.5,17.6c0,35.7,29.1,64.8,64.8,64.8c35.7,0,64.8-29.1,64.8-64.8
		c0-6.1-0.9-12-2.5-17.6c-0.7-2.3-1.4-4.5-2.3-6.7h35.4V188V272.7z"/>
</g>
</svg>
