<?xml version="1.0" encoding="utf-8"?>
<!-- Generator: Adobe Illustrator 22.1.0, SVG Export Plug-In . SVG Version: 6.00 Build 0)  -->
<svg version="1.1" id="Ebene_1" xmlns="http://www.w3.org/2000/svg" xmlns:xlink="http://www.w3.org/1999/xlink" x="0px" y="0px"
	 viewBox="0 0 400 400" style="enable-background:new 0 0 400 400;" xml:space="preserve">
<style type="text/css">
	.st0{fill:#23B180;}
	.st1{fill:#FFFFFF;}
</style>
<g>
	<path id="XMLID_36_" class="st0" d="M397,199.5C397,308.6,308.6,397,199.5,397C90.4,397,2,308.6,2,199.5C2,90.4,90.4,2,199.5,2
		C308.6,2,397,90.4,397,199.5z"/>
	<g>
		<path class="st1" d="M316.4,185.2c-1.6-61.6-52.3-111.1-114.8-111.1c-61.7,0-112.1,48.3-114.7,108.9c-0.1,1.7-0.1,3.3-0.1,5
			c0,21.5,6,41.7,16.5,58.8l-20.7,61.2l63.6-20.2c16.5,9,35.4,14.2,55.5,14.2c63.4,0,114.8-51,114.8-114
			C316.5,187.1,316.4,186.1,316.4,185.2z M201.6,283.9c-19.6,0-37.9-5.8-53.1-15.8l-37.1,11.8l12.1-35.6
			c-11.6-15.8-18.4-35.2-18.4-56.2c0-3.1,0.2-6.2,0.5-9.3c4.7-48.5,46-86.5,96.1-86.5c50.7,0,92.4,39,96.2,88.3
			c0.2,2.5,0.3,5,0.3,7.5C298.2,240.9,254.9,283.9,201.6,283.9z"/>
		<path id="XMLID_32_" class="st1" d="M254.2,211.1c-2.8-1.4-16.7-8.2-19.2-9.1c-2.6-0.9-4.5-1.4-6.3,1.4c-1.9,2.8-7.3,9.1-8.9,10.9
			c-1.6,1.9-3.3,2.1-6.1,0.7c-2.8-1.4-11.9-4.3-22.6-13.9c-8.4-7.4-14-16.5-15.7-19.3c-1.6-2.8-0.2-4.3,1.2-5.7
			c1.3-1.3,2.8-3.3,4.2-4.9c0.4-0.5,0.7-0.9,1-1.3c0.7-1,1.1-2,1.8-3.3c0.9-1.9,0.5-3.5-0.2-4.9c-0.7-1.4-6.3-15.1-8.7-20.7
			c-2.4-5.6-4.7-4.7-6.3-4.7c-1.6,0-3.5-0.2-5.4-0.2c-1.9,0-4.9,0.7-7.5,3.5c-2.6,2.8-9.9,9.5-9.9,23.3c0,3.2,0.6,6.5,1.5,9.5
			c2.8,9.9,9,18,10,19.4c1.4,1.9,19.5,31,48.1,42.2c28.6,11.2,28.6,7.5,33.8,7c5.2-0.5,16.7-6.8,19-13.3c2.3-6.5,2.3-12.1,1.6-13.3
			C258.9,213.2,257,212.5,254.2,211.1z"/>
	</g>
</g>
</svg>
