<?xml version="1.0" encoding="utf-8"?>
<!-- Generator: Adobe Illustrator 22.1.0, SVG Export Plug-In . SVG Version: 6.00 Build 0)  -->
<svg version="1.1" id="Ebene_1" xmlns="http://www.w3.org/2000/svg" xmlns:xlink="http://www.w3.org/1999/xlink" x="0px" y="0px"
	 viewBox="0 0 400 400" style="enable-background:new 0 0 400 400;" xml:space="preserve">
<style type="text/css">
	.st0{fill:#F15A4B;}
	.st1{fill:#FFFFFF;}
</style>
<g>
	<path id="XMLID_41_" class="st0" d="M399,200c0,109.9-89.1,199-199,199C90.1,399,1,309.9,1,200C1,90.1,90.1,1,200,1
		C309.9,1,399,90.1,399,200z"/>
	<path class="st1" d="M315.5,151.4c0,0-2.3-17-9.4-24.4c-9-9.8-19-9.8-23.6-10.4c-33-2.5-82.5-2.5-82.5-2.5H200c0,0-49.5,0-82.5,2.5
		c-4.6,0.6-14.6,0.6-23.6,10.4c-7.1,7.5-9.4,24.4-9.4,24.4s-2.4,19.9-2.4,39.8v2.4v16.2c0,19.9,2.4,39.8,2.4,39.8s2.3,16.9,9.4,24.4
		c9,9.8,20.8,9.5,26,10.5c18.9,1.9,80.1,2.5,80.1,2.5s49.5-0.1,82.5-2.6c4.6-0.6,14.6-0.6,23.6-10.4c7.1-7.5,9.4-24.4,9.4-24.4
		s2.4-19.9,2.4-39.8v-15.2v-3.4C317.9,171.3,315.5,151.4,315.5,151.4z M239.3,198.1l-63.7,34.4l0-53l0-16.1l28.7,15.6L239.3,198.1z"
		/>
</g>
</svg>
